<?xml version="1.0" encoding="UTF-8"?>
<svg width="66px" height="34px" viewBox="0 0 66 34" version="1.1" xmlns="http://www.w3.org/2000/svg" xmlns:xlink="http://www.w3.org/1999/xlink">
    <!-- Generator: Sketch 54.1 (76490) - https://sketchapp.com -->
    <title>CLOUD BPM LOGO</title>
    <desc>Created with Sketch.</desc>
    <defs>
        <path d="M30.3486079,7.90123592 C29.9062945,8.248515 29.3150193,8.42402302 28.5722611,8.42402302 C28.5414925,8.42402302 28.5108455,8.42372891 28.48032,8.42314075 C28.4476121,8.42372901 28.4146501,8.42402302 28.3814342,8.42402302 C27.7253977,8.42402302 27.1171039,8.31206333 26.557276,8.08780139 L26.4661654,8.05130333 L26.4661654,6.14842079 L26.6789021,6.28759964 C27.247997,6.65991903 27.8008182,6.84465024 28.3387846,6.84465024 C28.98255,6.84465024 29.2650469,6.68213834 29.2650469,6.38178892 C29.2650469,6.17976271 29.0174579,5.97485009 28.4838464,5.7975008 C27.7315305,5.54617873 27.2100342,5.26382254 26.9167166,4.94228276 C26.615833,4.61244907 26.4661654,4.16831545 26.4661654,3.61873172 C26.4661654,2.9468736 26.7228723,2.4125897 27.2295319,2.03081976 C27.7242169,1.65807273 28.3669406,1.47331291 29.1544586,1.47331291 C29.7090366,1.47331291 30.2440706,1.5616705 30.7590601,1.73840016 L30.8564793,1.77183165 L30.8564793,3.60120889 L30.6454476,3.46752185 C30.2086924,3.19084067 29.7285681,3.05268569 29.2024395,3.05268569 C28.9518352,3.05268569 28.7554384,3.09951989 28.6120611,3.18972539 C28.4856903,3.26923123 28.430782,3.36030549 28.430782,3.47541963 C28.430782,3.68380231 28.6347265,3.87646901 29.0814372,4.03772459 C29.6216725,4.23135758 30.0292921,4.408233 30.3061589,4.56990152 C30.5962451,4.73928914 30.8193967,4.96463184 30.9730293,5.24483874 C31.1265538,5.5248483 31.2030075,5.84743833 31.2030075,6.2098144 C31.2030075,6.91240788 30.9372441,7.46621268 30.4121346,7.85568698 C30.3912338,7.8711891 30.3700582,7.88637199 30.3486079,7.90123592 Z M33.2165669,8.42186219 C33.1838897,8.42330308 33.1508334,8.42402302 33.1173963,8.42402302 C32.5829794,8.42402302 32.1623962,8.25610097 31.8477872,7.92180351 C31.5350887,7.58953613 31.3784461,7.13669313 31.3784461,6.55234342 C31.3784461,6.5203473 31.3788885,6.48871447 31.3797741,6.4574444 C31.3788888,6.42679877 31.3784461,6.39584737 31.3784461,6.36459147 C31.3784461,5.06844772 32.0935578,4.30278091 33.4783145,4.09440851 L34.9442053,3.87758051 C34.9068274,3.31490078 34.6174016,3.05268569 34.0350223,3.05268569 C33.3733114,3.05268569 32.7503817,3.27247921 32.1630221,3.71420291 L31.9481719,3.87578095 L31.9481719,2.07446072 L32.018355,2.03135608 C32.2933747,1.86244613 32.6555335,1.72773701 33.1055513,1.62548714 C33.5513755,1.52419013 33.934089,1.47331291 34.2545496,1.47331291 C35.947255,1.47331291 36.8170426,2.42929908 36.8170426,4.28943233 L36.8170426,8.26924596 L34.9379258,8.26924596 L34.9379258,7.6340216 C34.5340382,8.15872972 33.9930647,8.42402302 33.3241717,8.42402302 C33.2878792,8.42402302 33.2520103,8.42330286 33.2165669,8.42186219 Z M33.9115343,5.31447401 C33.2910906,5.40918973 32.9573935,5.75913599 32.9573935,6.34541511 C32.9573935,6.61786887 33.0404059,6.84474255 33.2045943,7.01525924 C33.3661058,7.18299595 33.5803173,7.26557134 33.8412231,7.26557134 C34.1946656,7.26557134 34.4907486,7.11788044 34.7208162,6.82559757 C34.9485037,6.53633841 35.0626566,6.17585425 35.0626566,5.7516084 L35.0626566,5.14174325 L33.9115343,5.31447401 Z M41.078944,3.45992072 C40.9413799,3.31524916 40.7657599,3.22367372 40.5526353,3.1877172 C40.5345712,3.18676445 40.5161723,3.18628967 40.497438,3.18628967 C40.2303213,3.18628967 40.0226976,3.30343102 39.8624998,3.54473069 C39.6956269,3.79608462 39.6107147,4.13454074 39.6107147,4.56427131 L39.6107147,8.23094774 L37.6942356,8.23094774 L37.6942356,1.62721773 L39.6107147,1.62721773 L39.6107147,2.33607227 C39.7822522,2.11557291 39.9851064,1.93365853 40.2187891,1.79092569 C40.5649772,1.57947489 40.9306999,1.47331291 41.3140191,1.47331291 C42.0749288,1.47331291 42.6301419,1.8232646 42.9623354,2.51196879 C43.4157218,1.82199277 44.0456596,1.47331291 44.8406285,1.47331291 C46.1498981,1.47331291 46.8170426,2.39388266 46.8170426,4.1652588 L46.8170426,8.23094774 L44.9056671,8.23094774 L44.9056671,4.48446881 C44.9056671,3.59350681 44.6401119,3.18628967 44.0954983,3.18628967 C43.8467832,3.18628967 43.6428081,3.30896037 43.4733829,3.56458529 C43.2972481,3.8303334 43.208775,4.15624745 43.208775,4.54717077 L43.208775,8.23094774 L41.2973995,8.23094774 L41.2973995,4.43886738 C41.2973995,3.98723922 41.225346,3.66455821 41.078944,3.45992072 Z M52.7629634,7.64324548 C52.2714122,8.1633941 51.6282337,8.42402302 50.8273221,8.42402302 C50.7852575,8.42402302 50.7436345,8.4233074 50.7024524,8.42187636 C50.6563193,8.42330752 50.609743,8.42402302 50.5627243,8.42402302 C49.5836129,8.42402302 48.7990583,8.11512477 48.2170486,7.49562094 C47.6342291,6.87525507 47.3433584,6.03259714 47.3433584,4.97733039 C47.3433584,3.89483269 47.6433054,3.03542621 48.2443575,2.40919669 C48.8437631,1.78468256 49.6470968,1.47331291 50.6467183,1.47331291 C51.6154221,1.47331291 52.3921705,1.78038299 52.9689193,2.39614098 C53.5462332,3.01250219 53.8345865,3.83980364 53.8345865,4.86841319 C53.8345865,5.94603353 53.5397307,6.81197046 52.9490256,7.45700847 C52.8891338,7.52240909 52.8271101,7.58448761 52.7629634,7.64324548 Z M49.0977444,5.05086438 C49.0977444,6.37571789 49.5825795,7.07249605 50.5278022,7.07249605 C51.4399578,7.07249605 51.9047619,6.35720089 51.9047619,4.99993545 C51.9047619,3.70179019 51.4348288,3.01791516 50.518148,3.01791516 C50.0725296,3.01791516 49.7181971,3.20089334 49.4663266,3.56526421 C49.2191726,3.92281183 49.0977444,4.41952063 49.0977444,5.05086438 Z M57.165702,3.2190726 C57.1260672,3.23166174 57.0873491,3.24668169 57.0495667,3.26412116 C56.9290331,3.32280586 56.8213531,3.41492585 56.7251081,3.54132515 C56.5398581,3.78461569 56.4467329,4.09678552 56.4467329,4.48446881 L56.4467329,8.23094774 L54.5363409,8.23094774 L54.5363409,1.62721773 L56.4467329,1.62721773 L56.4467329,2.3381846 C56.8682104,1.76364674 57.4372898,1.47331291 58.1446273,1.47331291 C59.4735852,1.47331291 60.1503759,2.41295436 60.1503759,4.22226059 L60.1503759,8.23094774 L58.2501587,8.23094774 L58.2501587,4.56427131 C58.2501587,3.61990437 57.9714595,3.18628967 57.4018637,3.18628967 C57.3185391,3.18628967 57.2399093,3.19716333 57.165702,3.2190726 Z" id="path-1"></path>
    </defs>
    <g id="CLOUD-BPM-LOGO" stroke="none" stroke-width="1" fill="none" fill-rule="evenodd">
        <rect id="矩形" x="18" y="5" width="30" height="30"></rect>
        <g id="编组" transform="translate(2.000000, 9.000000)">
            <mask id="mask-2" fill="white">
                <use xlink:href="#path-1"></use>
            </mask>
            <use id="samon" fill="#53B4B3" fill-rule="nonzero" xlink:href="#path-1"></use>
            <text id="Industrial-Cloud" font-family="MicrosoftYaHeiUI-Bold, Microsoft YaHei UI" font-size="6.6854086" font-weight="bold" letter-spacing="-0.320815198" fill="#53B4B3">
                <tspan x="11.4954052" y="15.958693">Industrial Clou</tspan>
                <tspan x="55.9717438" y="15.958693">d</tspan>
            </text>
            <path d="M7.43006081,14.9868003 C2.39707925,14.9868003 0.0409233827,14.285687 0.284434352,11.2880839 C0.446774999,9.28968187 2.22031558,7.73580279 5.6050561,6.6264467 C6.96722228,2.57595564 9.50664892,0.550710109 13.223336,0.550710109 C16.9400231,0.550710109 19.3880726,2.22370154 20.5674845,5.5696844 C23.0741518,6.53212368 24.3274854,7.69663628 24.3274854,9.06322222" id="路径-3" stroke="#53B4B3" stroke-width="2.10361263" stroke-linecap="round" stroke-linejoin="round"></path>
        </g>
    </g>
</svg>