<?xml version="1.0" encoding="UTF-8"?>
<svg width="66px" height="34px" viewBox="0 0 66 34" version="1.1" xmlns="http://www.w3.org/2000/svg" xmlns:xlink="http://www.w3.org/1999/xlink">
    <!-- Generator: Sketch 54.1 (76490) - https://sketchapp.com -->
    <title>知识库logo</title>
    <desc>Created with Sketch.</desc>
    <defs>
        <path d="M2.22147651,19.3986954 L2.58860192,19.6189559 C3.57070449,20.2081782 4.52472289,20.5005287 5.45310613,20.5005287 C6.56406946,20.5005287 7.0515821,20.2433419 7.0515821,19.7680173 C7.0515821,19.4482962 6.6243111,19.1240072 5.70344327,18.8433392 C4.40515133,18.4456039 3.505191,17.9987548 2.99900485,17.489895 C2.47976195,16.9679094 2.22147651,16.2650359 2.22147651,15.39528 C2.22147651,14.3320161 2.6644825,13.4864733 3.53883874,12.8822948 C4.39253007,12.2923957 5.50169565,12 6.8607369,12 C7.81778712,12 8.74110969,12.1398323 9.62984106,12.4195197 L9.79796008,12.4724274 L9.79796008,15.3675488 L9.4337769,15.1559795 C8.68005658,14.7181115 7.85149313,14.4994713 6.94353871,14.4994713 C6.51106419,14.4994713 6.17213689,14.5735898 5.92470671,14.7163465 C5.70662529,14.8421703 5.61186857,14.9863018 5.61186857,15.1684783 C5.61186857,15.4982589 5.96382109,15.8031678 6.7347218,16.0583664 C7.6670205,16.3648046 8.3704606,16.6447227 8.84825719,16.9005748 C9.34886689,17.1686429 9.73396558,17.525264 9.99909359,17.9687116 C10.2640349,18.4118469 10.3959732,18.9223689 10.3959732,19.4958552 C10.3959732,20.60776 9.93733811,21.4841961 9.03114229,22.1005672 C8.14663788,22.7021845 6.9769026,23 5.52670774,23 C4.39456784,23 3.3448186,22.8228157 2.3787085,22.467905 L2.22147651,22.4101442 L2.22147651,19.3986954 Z M15.7378952,14.4994713 C14.6012251,14.4994713 13.5311725,14.8473104 12.5222212,15.54637 L12.1531571,15.8020789 L12.1531571,12.9513598 L12.2737158,12.8831436 C12.7461376,12.6158314 13.3682447,12.4026445 14.1412738,12.2408267 C14.9070991,12.0805169 15.5645146,12 16.1149937,12 C19.0226797,12 20.5167785,13.5129171 20.5167785,16.4567121 L20.5167785,22.7550541 L17.2888797,22.7550541 L17.2888797,21.7497658 C16.595092,22.5801542 15.6658216,23 14.5168142,23 C13.5195658,23 12.7085196,22.7083705 12.0966058,22.1227958 C11.4815379,21.5342028 11.1744966,20.7348018 11.1744966,19.740801 C11.1744966,17.6895601 12.4028972,16.4778372 14.7815968,16.1480728 L17.2996666,15.8049269 C17.2354598,14.9144456 16.7382915,14.4994713 15.7378952,14.4994713 Z M15.6635289,17.3947022 C14.5163326,17.5523834 13.8993289,18.1349682 13.8993289,19.1109961 C13.8993289,19.5645727 14.0528183,19.9422683 14.3564015,20.2261417 C14.6550353,20.505387 15.0511108,20.6428571 15.5335239,20.6428571 C16.1870368,20.6428571 16.7344922,20.3969838 17.1598856,19.910396 C17.5808783,19.4288421 17.7919463,18.828714 17.7919463,18.1224364 L17.7919463,17.1071429 L15.6635289,17.3947022 Z M34.5759548,12 C36.8664331,12 38.033557,13.4449752 38.033557,16.2254214 L38.033557,22.6071429 L34.6897354,22.6071429 L34.6897354,16.7264704 C34.6897354,15.327969 34.2251645,14.6887794 33.2724001,14.6887794 C32.8372898,14.6887794 32.4804493,14.8813298 32.1840513,15.2825723 C31.8759154,15.6997047 31.7211379,16.2112767 31.7211379,16.8248907 L31.7211379,22.6071429 L28.3773162,22.6071429 L28.3773162,16.6548919 C28.3773162,15.3047362 27.9200696,14.6887794 26.9778378,14.6887794 C26.5105352,14.6887794 26.1473118,14.8726507 25.8670565,15.2514075 C25.5751238,15.645946 25.4265756,16.1772047 25.4265756,16.8517326 L25.4265756,22.6071429 L22.0738255,22.6071429 L22.0738255,12.2415772 L25.4265756,12.2415772 L25.4265756,13.3542329 C25.7266688,13.0081254 26.0815484,12.722583 26.4903606,12.4985419 C27.0959931,12.1666375 27.7358002,12 28.4063909,12 C29.7375509,12 30.7088585,12.5493028 31.2900085,13.6303295 C32.0831773,12.5473064 33.1852106,12 34.5759548,12 Z M38.8120805,17.5453603 C38.8120805,15.8322297 39.3337043,14.4721569 40.3789658,13.4811036 C41.4213641,12.4927649 42.818404,12 44.556799,12 C46.2414263,12 47.5922331,12.4859605 48.59523,13.460442 C49.5992095,14.435878 50.1006711,15.7451422 50.1006711,17.372991 C50.1006711,19.0784029 49.5879013,20.4488106 48.5606337,21.4696297 C47.5332067,22.4906074 46.1450196,23 44.410729,23 C42.7080022,23 41.34362,22.5111462 40.3314743,21.5307367 C39.3179202,20.548963 38.8120805,19.2153961 38.8120805,17.5453603 Z M41.9261745,17.3128924 C41.9261745,19.4951472 42.8002201,20.6428571 44.5042376,20.6428571 C46.148643,20.6428571 46.9865772,19.4646466 46.9865772,17.2290039 C46.9865772,15.090742 46.1393965,13.9642857 44.4868333,13.9642857 C43.6834866,13.9642857 43.0447071,14.2656813 42.5906429,14.865861 C42.1450815,15.4548016 41.9261745,16.2729639 41.9261745,17.3128924 Z M57.5231727,12 C59.8268298,12 61,13.4749112 61,16.3148944 L61,22.6071429 L57.7061041,22.6071429 L57.7061041,16.8517326 C57.7061041,15.3694041 57.2229982,14.6887794 56.2356432,14.6887794 C55.7629628,14.6887794 55.3774377,14.8715705 55.0625339,15.2460619 C54.7414157,15.6279437 54.5799896,16.1179421 54.5799896,16.7264704 L54.5799896,22.6071429 L51.2684564,22.6071429 L51.2684564,12.2415772 L54.5799896,12.2415772 L54.5799896,13.3575486 C55.3105918,12.4557234 56.2970518,12 57.5231727,12 Z" id="path-1"></path>
    </defs>
    <g id="知识库logo" stroke="none" stroke-width="1" fill="none" fill-rule="evenodd">
        <rect id="矩形" x="26" y="11" width="12" height="12"></rect>
        <mask id="mask-2" fill="white">
            <use xlink:href="#path-1"></use>
        </mask>
        <use id="samon" fill="#53B4B3" fill-rule="nonzero" xlink:href="#path-1"></use>
    </g>
</svg>