<?xml version="1.0" encoding="UTF-8"?>
<svg width="200px" height="50px" viewBox="0 0 200 50" version="1.1" xmlns="http://www.w3.org/2000/svg" xmlns:xlink="http://www.w3.org/1999/xlink">
    <!-- Generator: Sketch 54.1 (76490) - https://sketchapp.com -->
    <title>灵犀云平台LOGO1</title>
    <desc>Created with Sketch.</desc>
    <g id="灵犀云平台LOGO1" stroke="none" stroke-width="1" fill="none" fill-rule="evenodd">
        <g id="编组" transform="translate(67.692308, 10.923077)" fill="#666666">
            <path d="M7.15785525,3.14487609 L17.6844361,3.14487609 L17.6844361,1.73757919 L6.65122837,1.73757919 L6.65122837,0.142642701 L19.4670122,0.142642701 L19.4670122,7.64822618 L6.35100503,7.64822618 L6.35100503,6.03452573 L17.6844361,6.03452573 L17.6844361,4.66475675 L7.15785525,4.66475675 L7.15785525,3.14487609 Z M8.43380444,8.73653578 L9.97244905,9.50585809 C9.33447446,10.894391 8.60268007,12.0765204 7.75830193,13.0710102 L6.36976898,12.0765204 C7.15785525,11.1383225 7.85212172,10.0312489 8.43380444,8.73653578 Z M14.10052,8.09856119 C14.10052,8.86788349 14.0442281,9.56214997 13.9504083,10.2001246 C15.00119,12.714495 17.6656721,14.4032513 21.9250907,15.2476294 L21.1932964,16.8988578 C17.0652254,15.9606599 14.4195073,14.4220153 13.2561418,12.2453961 C12.0740124,14.3469594 9.55964196,15.904368 5.73179439,16.8988578 L5,15.2476294 C8.92166737,14.3469594 11.2671622,12.7895509 12.0364845,10.6129317 C12.2241241,10.012485 12.3179439,9.16810683 12.3367078,8.09856119 L14.10052,8.09856119 Z M18.5851061,8.64271599 L20.1425147,9.39327434 C19.4670122,10.7255154 18.6976898,11.8701169 17.7970198,12.8458427 L16.370959,11.832589 C17.2341011,10.931919 17.9658955,9.88113726 18.5851061,8.64271599 Z M30.165672,11.6449494 C29.8279208,12.0952844 29.4714055,12.4705636 29.0961264,12.7895509 L27.9327609,11.7762971 C28.814667,11.0820306 29.4714055,10.2001246 29.9029766,9.11181496 L29.0961264,9.26192663 L28.6833193,7.89215764 C30.2970197,7.64822618 31.7606085,7.3667668 33.0365577,7.06654346 L33.0365577,8.34249265 C32.1734156,8.58642411 31.2352177,8.83035558 30.184436,9.05552308 L31.3290375,9.48709413 C31.2164537,9.73102559 31.1226339,9.97495706 31.0288141,10.2001246 L33.9372277,10.2001246 L33.9372277,9.14934287 L35.7010398,9.14934287 L35.7010398,10.2001246 L40.7860726,10.2001246 L40.7860726,11.6449494 L35.7010398,11.6449494 L35.7010398,13.0147184 L41.7805625,13.0147184 L41.7805625,14.534599 L35.7010398,14.534599 L35.7010398,16.9551497 L33.9372277,16.9551497 L33.9372277,14.534599 L27.9515249,14.534599 L27.9515249,13.0147184 L33.9372277,13.0147184 L33.9372277,11.6449494 L30.165672,11.6449494 Z M39.247428,1.66252336 L28.1204005,1.66252336 L28.1204005,2.82588879 L39.247428,2.82588879 L39.247428,1.66252336 Z M28.1204005,4.30824153 L28.1204005,6.05328969 C28.1016366,10.1063048 27.3698422,13.5964011 25.9250174,16.5235786 L24.5927763,15.3039213 C25.7749057,12.9208986 26.3753524,9.84360935 26.3941163,6.05328969 L26.3941163,0.142642701 L40.9924762,0.142642701 L40.9924762,4.30824153 L28.1204005,4.30824153 Z M33.9372277,4.6835207 L35.6635119,4.6835207 L35.6635119,8.68024391 L33.9372277,8.68024391 L33.9372277,4.6835207 Z M29.4338776,4.70228466 C30.6910629,4.90868821 31.9107202,5.20891155 33.0740856,5.62171864 L32.5674587,6.86013991 C31.3665654,6.44733282 30.1093801,6.10958157 28.833431,5.88441406 L29.4338776,4.70228466 Z M37.0520449,7.12283534 C38.4030499,7.34800284 39.716527,7.6857541 40.9737122,8.1360891 L40.4483214,9.48709413 C39.1723722,8.98046725 37.8401311,8.58642411 36.4515982,8.30496473 L37.0520449,7.12283534 Z M36.9019332,6.822612 L36.4515982,5.5466628 C37.8588951,5.30273134 39.2099001,4.98374404 40.5233772,4.60846487 L40.9174204,5.90317802 C39.697763,6.24092928 38.365522,6.55991657 36.9019332,6.822612 Z" id="灵犀工业" fill-rule="nonzero"></path>
            <text id="LINGXI-CLOUD-PLATFOR" font-family="PingFangSC-Regular, PingFang SC" font-size="7" font-weight="normal">
                <tspan x="4.8995" y="29">LINGXI CLOUD PLATFORM</tspan>
            </text>
        </g>
        <path d="M112.681391,12.0010707 L125.256792,12.0010707 L125.256792,13.6755889 L112.681391,13.6755889 L112.681391,12.0010707 Z M111,17.0246253 L126.815581,17.0246253 L126.815581,18.7537473 L118.513715,18.7537473 C117.007469,21.8843683 115.693882,24.1231263 114.555441,25.4700214 C117.427817,25.2880086 120.300192,24.9785867 123.137539,24.5599572 C122.577076,23.5224839 121.964069,22.4486081 121.298518,21.356531 L122.629619,20.5010707 C124.223437,22.9582441 125.449451,25.1059957 126.325176,26.9261242 L124.836444,28 C124.556213,27.3811563 124.275981,26.7623126 123.96072,26.143469 C120.440308,26.6531049 116.62215,27.0535332 112.488731,27.3447537 L112.050869,25.5792291 C112.226014,25.5246253 112.36613,25.4700214 112.453702,25.4154176 C113.522086,24.5781585 114.923245,22.3576017 116.657179,18.7537473 L111,18.7537473 L111,17.0246253 Z M128.997768,11.764454 L143.25456,11.764454 L143.25456,13.4571734 L136.879287,13.4571734 L136.879287,19.9004283 L143.92011,19.9004283 L143.92011,21.5567452 L136.879287,21.5567452 L136.879287,27.8543897 L135.197896,27.8543897 L135.197896,21.5567452 L128.297188,21.5567452 L128.297188,19.9004283 L135.197896,19.9004283 L135.197896,13.4571734 L128.997768,13.4571734 L128.997768,11.764454 Z M131.449796,14.3126338 C132.080317,15.5503212 132.693324,16.8972163 133.288817,18.3897216 L131.730028,19.1905782 C131.152049,17.6616702 130.539042,16.2965739 129.891006,15.0952891 L131.449796,14.3126338 Z M140.907619,14.2398287 L142.431379,14.9860814 C141.923459,16.3875803 141.257908,17.7526767 140.452242,19.0995717 L138.945996,18.2987152 C139.769177,16.9154176 140.417213,15.5685225 140.907619,14.2398287 Z M159.038378,20.1552463 L159.038378,27.8907923 L157.356987,27.8907923 L157.356987,27.1445396 L148.739859,27.1445396 L148.739859,27.8907923 L147.058469,27.8907923 L147.058469,20.1552463 L159.038378,20.1552463 Z M148.739859,25.4882227 L157.356987,25.4882227 L157.356987,21.8115632 L148.739859,21.8115632 L148.739859,25.4882227 Z M145.920027,18.4625268 L145.604766,16.8244111 C146.935867,16.5149893 148.774888,14.5674518 151.12183,11 L152.855764,11.6188437 C151.43709,13.6573876 150.000902,15.3683084 148.529686,16.751606 C151.507148,16.6423983 154.379524,16.4421842 157.164327,16.1691649 C156.603864,15.2955032 156.025886,14.4946467 155.447908,13.7301927 L156.954154,12.98394 C158.372827,14.8040685 159.721442,16.8062099 161,19.0085653 L159.371153,19.8458244 C158.950805,19.0813704 158.547972,18.3715203 158.145139,17.6980728 C154.484611,18.0256959 150.403736,18.2805139 145.920027,18.4625268 Z" id="云平台" fill="#666666" fill-rule="nonzero"></path>
        <g id="编组-2" transform="translate(8.000000, 7.000000)">
            <path d="M42.7501475,7.35306071 C49.193412,8.77771057 54,14.3468917 54,21 C54,28.7319865 47.5081289,35 39.5,35 C39.4987049,35 39.4974098,34.9999998 39.4961147,34.9999995 C25.7288222,35 20.7048153,35 11.4946583,35 C11.4384662,34.9986113 11.3828776,34.9969402 11.3278884,34.9949888 C11.218982,34.9983218 11.1096784,35 11,35 C4.92486775,35 0,29.8512746 0,23.5 C0,17.6900178 4.12118762,12.8863431 9.47412718,12.1097495 C10.6781164,8.55696213 14.0404529,6 18,6 C18.6256194,6 19.2363296,6.06383425 19.8259725,6.18534481 C22.0309845,2.49148345 26.2008405,0 30.9817936,0 C36.2509047,0 40.777756,3.0262427 42.7501475,7.35306071 Z" id="形状结合" fill="#53B4B3"></path>
            <g id="灵犀logo复制" transform="translate(7.000000, 11.000000)">
                <polygon id="路径-2" fill="#FFFFFF" points="0 6.30081301 0.613288407 9.94779503 5.4491018 16.4634146 5.4491018 11.0280134 3.97325885 10.5557352"></polygon>
                <polygon id="路径-3" fill="#FFFFFF" points="8.20470921 19.1056911 6.0875944 17.4914114 6.0875944 10.9708877 21.3772455 0 17.6193272 9.05594502 20.6340641 14.8751724 16.2004689 13.4789731 12.9908136 14.5935446"></polygon>
                <polygon id="路径-4" fill="#FFFFFF" points="21.8990428 0 18.2335329 8.91876053 24.868709 22.2160029 24.2060364 25 30.3830796 25 30.3830796 23.134037 26.7115037 16.7235178 34.3599736 11.3821138 35 3.12036794 29.0277119 5.48780488"></polygon>
                <polygon id="路径-5" fill="#FFFFFF" points="22.4938452 24.796748 17.9655051 24.5886068 18.1447907 22.6441544 17.1856287 21.0243687 21.5627955 16.6862584 23.2888638 20.1858743 22.1299246 21.6047164 22.8443114 23.0132874"></polygon>
                <path d="M10.0592061,11.3745927 C10.2889691,10.6343349 10.5504376,10.1570083 10.8436118,9.94261273 C11.1367859,9.72821721 11.7066061,9.65705396 12.5530724,9.72912301 C12.4643721,10.3835964 12.2137619,10.861669 11.8012421,11.163341 C11.3887222,11.465013 10.8080435,11.5354302 10.0592061,11.3745927 Z" id="路径-6" fill="#53B4B3"></path>
                <polygon id="路径-7" fill="#FFFFFF" points="6.28742515 9.95934959 9.01197605 8.15253091 6.47554474 6.70731707"></polygon>
                <polygon id="路径-8" fill="#FFFFFF" points="11.8123168 7.11382114 11.4514689 6.70043975 10.4790419 6.07808359 11.0150351 4.47154472 12.5494082 4.88536117 12.5494082 5.94524466 12.7844311 6.43313317"></polygon>
            </g>
        </g>
    </g>
</svg>