<?xml version="1.0" encoding="UTF-8"?>
<svg width="66px" height="34px" viewBox="0 0 66 34" version="1.1" xmlns="http://www.w3.org/2000/svg" xmlns:xlink="http://www.w3.org/1999/xlink">
    <!-- Generator: Sketch 54.1 (76490) - https://sketchapp.com -->
    <title>灵犀BPM</title>
    <desc>Created with Sketch.</desc>
    <g id="灵犀BPM" stroke="none" stroke-width="1" fill="none" fill-rule="evenodd">
        <rect id="矩形" x="18" y="5" width="30" height="30"></rect>
        <g id="灵犀logo" transform="translate(15.000000, 4.000000)">
            <polygon id="路径-2" fill="#53B4B3" points="0 6.80487805 0.648333459 10.7436186 5.76047904 17.7804878 5.76047904 11.9102545 4.20030221 11.400194"></polygon>
            <polygon id="路径-3" fill="#53B4B3" points="8.67354974 20.6341463 6.43545694 18.8907243 6.43545694 11.8485587 22.5988024 0 18.6261459 9.78042062 21.8131534 16.0651862 17.12621 14.557291 13.7331458 15.7610282"></polygon>
            <polygon id="路径-4" fill="#53B4B3" points="23.1504167 0 19.2754491 9.63226137 26.2897781 23.9932831 25.5892384 27 32.1192555 27 32.1192555 24.98476 28.2378754 18.0613992 36.3234006 12.2926829 37 3.36999738 30.6864383 5.92682927"></polygon>
            <polygon id="路径-5" fill="#53B4B3" points="23.7792078 26.7804878 18.9921053 26.5556953 19.1816359 24.4556868 18.1676647 22.7063182 22.7949552 18.021159 24.619656 21.8007442 23.3944917 23.3330937 24.1497006 24.8543504"></polygon>
            <path d="M10.6340178,12.2845601 C10.8769102,11.4850817 11.1533198,10.9695689 11.4632467,10.7380218 C11.7731737,10.5064746 12.375555,10.4296183 13.2703908,10.5074529 C13.1766219,11.2142841 12.9116912,11.7306026 12.4755987,12.0564083 C12.0395063,12.382214 11.425646,12.4582646 10.6340178,12.2845601 Z" id="路径-6" fill="#FFFFFF"></path>
            <polygon id="路径-7" fill="#53B4B3" points="6.64670659 10.7560976 9.52694611 8.80473338 6.84557587 7.24390244"></polygon>
            <polygon id="路径-8" fill="#53B4B3" points="12.4873063 7.68292683 12.1058386 7.23647493 11.0778443 6.56433027 11.6444657 4.82926829 13.2665173 5.27619006 13.2665173 6.42086423 13.5149701 6.94778383"></polygon>
        </g>
    </g>
</svg>