<?xml version="1.0" encoding="UTF-8"?>
<svg width="80px" height="80px" viewBox="0 0 80 80" version="1.1" xmlns="http://www.w3.org/2000/svg" xmlns:xlink="http://www.w3.org/1999/xlink">
    <!-- Generator: Sketch 54.1 (76490) - https://sketchapp.com -->
    <title>灵犀logo</title>
    <desc>Created with Sketch.</desc>
    <g id="灵犀logo" stroke="none" stroke-width="1" fill="none" fill-rule="evenodd">
        <rect id="矩形" x="0" y="0" width="80" height="80"></rect>
        <g id="编组-2" transform="translate(0.000000, 14.000000)">
            <path d="M63.3335519,10.8253394 C72.8791289,12.9227406 80,21.1218128 80,30.9166667 C80,42.299869 70.3824131,51.5277778 58.5185185,51.5277778 C58.5165998,51.5277778 58.5146812,51.5277775 58.5127626,51.5277771 C38.1167737,51.5277778 30.6738005,51.5277778 17.0291234,51.5277778 C16.9458759,51.5257333 16.8635224,51.5232731 16.7820569,51.5204001 C16.620714,51.5253072 16.4587829,51.5277778 16.2962963,51.5277778 C7.29610037,51.5277778 0,43.9477099 0,34.5972222 C0,26.0436374 6.10546314,18.9715607 14.035744,17.8282423 C15.8194316,12.5977498 20.800671,8.83333333 26.6666667,8.83333333 C27.5935103,8.83333333 28.4982661,8.92731153 29.3718112,9.10620208 C32.6384956,3.6680173 38.81606,0 45.8989535,0 C53.705044,0 60.4114904,4.45530176 63.3335519,10.8253394 Z" id="形状结合" fill="#53B4B3"></path>
            <g id="灵犀logo复制" transform="translate(10.370370, 16.194444)">
                <polygon id="路径-2" fill="#FFFFFF" points="0 9.27619693 0.908575418 14.6453649 8.0727434 24.2378049 8.0727434 16.2356864 5.88630941 15.540388"></polygon>
                <polygon id="路径-3" fill="#FFFFFF" points="12.1551248 28.1278229 9.01865837 25.7512446 9.01865837 16.1515847 31.6699933 0 26.1027069 13.3323635 30.5689838 21.8995594 24.0006947 19.8440438 19.2456497 21.4849407"></polygon>
                <polygon id="路径-4" fill="#FFFFFF" points="32.4430264 0 27.0126414 13.1303974 36.8425318 32.7068932 35.8607946 36.8055556 45.0119697 36.8055556 45.0119697 34.0584434 39.5725981 24.6207345 50.9036645 16.7570009 51.8518519 4.59387502 43.0040177 8.07926829"></polygon>
                <polygon id="路径-5" fill="#FFFFFF" points="33.3242152 36.5063234 26.615563 36.1998933 26.8811714 33.3372273 25.4601907 30.9525429 31.9448822 24.5658804 34.5020204 29.7180927 32.7850734 31.8069436 33.8434243 33.8806731"></polygon>
                <path d="M14.9025275,16.7459282 C15.2429171,15.6561042 15.630278,14.9533733 16.06461,14.6377354 C16.4989421,14.3220976 17.3431202,14.2173294 18.5971443,14.3234311 C18.4657364,15.2869613 18.0944621,15.9907905 17.4833216,16.4349187 C16.872181,16.8790469 16.0119163,16.9827167 14.9025275,16.7459282 Z" id="路径-6" fill="#53B4B3"></path>
                <polygon id="路径-7" fill="#FFFFFF" points="9.31470393 14.6623758 13.3510756 12.0023372 9.59339961 9.87466125"></polygon>
                <polygon id="路径-8" fill="#FFFFFF" points="17.4997286 10.4731256 16.9651392 9.86453629 15.5245065 8.94828972 16.3185706 6.5831075 18.5917159 7.19233728 18.5917159 8.75272131 18.939898 9.47100162"></polygon>
            </g>
        </g>
    </g>
</svg>